# xmcd
#
# Track frame offsets:
#	150
#	16128
#	29375
#	45732
#	57253
#	72011
#	85198
#	100547
#	117084
#	128031
#
# Disc length: 1949 seconds
#
# Revision: 1
# Processed by: cddbd v1.5.2PL0 Copyright (c) Steve Scherf et al.
# Submitted via: audiograbber 1.83.01
#
DISCID=73079b0a
DTITLE=John Anderson - I Just Came Home To Count The Memories
DYEAR=1981
DGENRE=Country
TTITLE0=I Just Came Home To Count The Memories
TTITLE1=Would You Catch A Falling Star
TTITLE2=One Of Those Old Things (We All Go Through)
TTITLE3=Girl, For You
TTITLE4=When Lady Is Cloudin' Your Vision
TTITLE5=Stop In The Road
TTITLE6=I Danced With The San Antone Rose
TTITLE7=Don't Think Twice, It's All Right
TTITLE8=Jessie Clay and the 12:05
TTITLE9=Trail Of Time
EXTD=
EXTT0=
EXTT1=
EXTT2=
EXTT3=
EXTT4=
EXTT5=
EXTT6=
EXTT7=
EXTT8=
EXTT9=
PLAYORDER=
